<!-- Generated by IcoMoon.io -->
<svg version="1.1" xmlns="http://www.w3.org/2000/svg" width="1024" height="1024" viewBox="0 0 1024 1024">
<title></title>
<g id="icomoon-ignore">
</g>
<path fill="#2b579a" d="M1023.957 159.275v706.005c0 6.016-2.133 10.88-6.357 14.763-4.309 4.011-9.429 5.888-15.36 5.888h-365.184v-97.92h297.899v-44.587h-298.155v-54.571h297.899v-44.544h-297.685v-55.040h297.813v-44.032h-297.813v-55.168h297.813v-44.544h-297.813v-54.571h297.813v-44.501h-297.813v-55.68h297.813v-42.411h-297.813v-110.635h365.312c6.357 0 11.52 2.048 15.275 6.357 4.48 4.224 6.4 9.387 6.357 15.189zM582.4 27.349v969.472l-582.4-100.779v-765.184l582.4-103.68zM494.507 313.557l-72.917 4.48-46.763 289.493h-1.067c-2.304-13.696-10.88-61.653-26.24-143.659l-27.264-139.221-68.437 3.413-27.392 135.808c-16 79.104-24.917 125.141-27.264 138.069h-0.64l-41.6-266.667-62.72 3.328 67.2 336.341 69.717 4.48 26.24-130.901c15.36-76.8 24.32-121.429 26.24-133.632h1.92c2.603 13.013 10.923 58.624 26.24 136.96l26.24 134.741 75.52 4.48 84.48-377.6z"></path>
</svg>
